<svg width="1297" height="1297" viewBox="0 0 1297 1297" xmlns="http://www.w3.org/2000/svg" xmlns:xlink="http://www.w3.org/1999/xlink"><title>Group 3</title><defs><path d="M0 .69c154.55 17.006 319.614 99.766 293.933 332.215a16.64 16.64 0 0 1 5.455-.932c20.773 0 37.612 39.992 37.612 89.326 0 49.333-16.84 89.326-37.612 89.326-1.102 0-2.194-.113-3.272-.334C293.986 674.271 180.338 855 23.763 855c-8.031 0-15.956-.476-23.763-1.4V.69z" id="a"/><path d="M293 3.69C271.02 1.272 249.254.184 228.28.184c-30.838 0-41.891 83.756-63.783 71.292C99.103 34.242-.534 216.925 38.775 335.014a16.161 16.161 0 0 0-1.163-.041C16.839 334.973 0 374.965 0 424.299c0 49.333 16.84 89.326 37.612 89.326 1.52 0 3.018-.214 4.49-.63C44.035 668.644 148.505 839.493 293 856.6V3.69z" id="c"/></defs><g fill="none" fill-rule="evenodd"><circle fill="#50E3C2" cx="648.5" cy="648.5" r="648.5"/><g transform="translate(642 223)"><mask id="b" fill="#fff"><use xlink:href="#a"/></mask><use fill="#FAE3B5" xlink:href="#a"/><g mask="url(#b)"><path d="M292.355 509.066C264.068 683.652 153.763 813.863 22 813.863s-242.068-130.21-270.355-304.797c-2.279 1.023-4.63 1.559-7.033 1.559-20.773 0-37.612-39.993-37.612-89.326 0-49.334 16.84-89.326 37.612-89.326 2.341 0 4.633.508 6.856 1.48C-220.53 158.316-110.039 27.56 22 27.56s242.53 130.757 270.532 305.894c2.223-.972 4.515-1.48 6.856-1.48 20.773 0 37.612 39.992 37.612 89.326 0 49.333-16.84 89.326-37.612 89.326-2.403 0-4.754-.536-7.033-1.56z" fill="#F3D7A3"/><path d="M72.808 166.724c42.663 2.952 86.473 11.093 125.599 40.534 21.39 16.094 58.65 63.376 73.617 121.987 1.087 4.258 8.152 7.517 21.193 9.78C326.624 68.475 105.03-2.816-64.72-2.816c-30.838 0-41.891 83.756-63.783 71.292-66.702-37.979-169.033 152.85-123.194 270.549 11.92 2.958 18.856 2.958 20.808 0 28.05-42.512 36.642-84.385 49.32-98.05 18.812-20.275 44.402-21.64 53.066-33.717 28.09-39.154 92.019-45.618 132.138-43.42 13.05.715 26.579 1.02 40.375 1.49a126.397 126.397 0 0 1-2.078 9.084c-7.098 26.49-15.893 45.5-26.385 57.03 7.146-5.062 18.188-16.315 33.126-33.759 6.708-7.834 14.753-18.153 24.135-30.959z" fill="#D19128"/><g fill="#B57D20"><path d="M23.763 855c158.066 0 272.384-184.187 272.384-349.389-8.091-2.526-13.249-2.526-15.473 0-88.73 100.769-170.729 162.625-256.91 162.404-85.922-.22-170.213-62.653-260.084-162.404-2.443-2.71-7.311-2.71-14.605 0C-250.925 670.813-134.303 855 23.763 855z"/><path d="M183.026 624.045c0-39.92-73.936-72.283-165.14-72.283-91.204 0-165.14 32.362-165.14 72.283 0 19.45 84.74-5.865 165.14-5.367 84.63.525 165.14 25.84 165.14 5.367z"/></g></g></g><g transform="translate(349 220)"><mask id="d" fill="#fff"><use xlink:href="#c"/></mask><use fill="#FAE3B5" xlink:href="#c"/><g mask="url(#d)"><path d="M585.355 512.066C557.068 686.652 446.763 816.863 315 816.863S72.932 686.653 44.645 512.066c-2.279 1.023-4.63 1.559-7.033 1.559C16.839 513.625 0 473.632 0 424.299c0-49.334 16.84-89.326 37.612-89.326 2.341 0 4.633.508 6.856 1.48C72.47 161.316 182.961 30.56 315 30.56s242.53 130.757 270.532 305.894c2.223-.972 4.515-1.48 6.856-1.48 20.773 0 37.612 39.992 37.612 89.326 0 49.333-16.84 89.326-37.612 89.326-2.403 0-4.754-.536-7.033-1.56z" fill="#FAE3B5"/><path d="M365.808 169.724c42.663 2.952 86.473 11.093 125.599 40.534 21.39 16.094 58.65 63.376 73.617 121.987 1.087 4.258 8.152 7.517 21.193 9.78C619.624 71.475 398.03.184 228.28.184c-30.838 0-41.891 83.756-63.783 71.292C97.795 33.497-4.536 224.326 41.303 342.025c11.92 2.958 18.856 2.958 20.808 0 28.05-42.512 36.642-84.385 49.32-98.05 18.812-20.275 44.402-21.64 53.066-33.717 28.09-39.154 92.019-45.618 132.138-43.42 13.05.715 26.579 1.02 40.375 1.49a126.397 126.397 0 0 1-2.078 9.084c-7.098 26.49-15.893 45.5-26.385 57.03 7.146-5.062 18.188-16.315 33.126-33.759 6.708-7.834 14.753-18.153 24.135-30.959z" fill="#E89813"/><g fill="#D29126"><path d="M316.763 858c158.066 0 272.384-184.187 272.384-349.389-8.091-2.526-13.249-2.526-15.473 0-88.73 100.769-170.729 162.625-256.91 162.404-85.922-.22-170.213-62.653-260.084-162.404-2.443-2.71-7.311-2.71-14.605 0C42.075 673.813 158.697 858 316.763 858z"/><path d="M476.026 627.045c0-39.92-73.936-72.283-165.14-72.283-91.204 0-165.14 32.362-165.14 72.283 0 19.45 84.74-5.865 165.14-5.367 84.63.525 165.14 25.84 165.14 5.367z"/></g></g></g></g></svg>